# xmcd
#
# Track frame offsets: 
#        150
#        16379
#        33146
#        48249
#        64862
#        78582
#        99854
#        114560
#        128447
#        141028
#        155324
#        171297
#        187936
#        206200
#        224695
#        239017
#
# Disc length: 3355 seconds
#
# Revision: 1
# Processed by: cddbd v1.5.2PL0 Copyright (c) Steve Scherf et al.
# Submitted via: ExactAudioCopy v1.0b3
#
DISCID=d90d1910
DTITLE=陳一郎 - 台語精選集 CD5
DYEAR=1900
DGENRE=Country
TTITLE0=我是行船人
TTITLE1=重逢的港口
TTITLE2=行船的人
TTITLE3=車站惜別
TTITLE4=離別的月台票
TTITLE5=皮箱流浪兒
TTITLE6=落葉時雨
TTITLE7=難忘的愛人
TTITLE8=走馬燈
TTITLE9=淡水暮色
TTITLE10=星星知我心
TTITLE11=快樂的農家
TTITLE12=男性本是漂泊的心情
TTITLE13=媽媽歌星
TTITLE14=心愛的小姐
TTITLE15=男性一生哭三擺
EXTD=
EXTT0=
EXTT1=
EXTT2=
EXTT3=
EXTT4=
EXTT5=
EXTT6=
EXTT7=
EXTT8=
EXTT9=
EXTT10=
EXTT11=
EXTT12=
EXTT13=
EXTT14=
EXTT15=
PLAYORDER=
